<svg width="70" height="70" viewBox="0 0 70 70" fill="none" xmlns="http://www.w3.org/2000/svg">
<path d="M11.7159 10.0841C10.5399 11.1285 9.25615 12.4095 7.97515 13.9593C6.21535 16.0859 4.93155 18.1481 3.99915 19.9065C10.9081 19.7581 16.2421 19.7973 18.9847 19.9149C19.6231 19.9429 20.7067 20.0101 21.8449 20.6387C23.3233 21.4535 24.05 22.7289 24.7164 23.8993C25.3016 24.9283 25.6362 25.8551 25.828 26.4963C21.9444 34.9663 18.0607 43.4349 14.1771 51.9049H25.0482L31.2852 38.2507L40.4664 58.0201C40.6946 58.5045 41.3442 59.7225 42.7708 60.5933C44.1652 61.4445 45.5694 61.4501 46.296 61.4543C49.2248 61.4725 53.6726 61.5131 59.2432 61.4571C60.4878 60.2587 61.892 58.7285 63.2724 56.8301C64.6486 54.9373 65.6706 53.1355 66.428 51.5857C59.8508 51.6011 54.7982 51.5703 52.1018 51.5619C51.6902 51.5605 50.846 51.5493 49.8772 51.1503C47.9186 50.3439 46.9694 48.5813 46.5186 47.7441C46.1938 47.1407 45.9936 46.6045 45.8704 46.2237C38.0654 29.1045 32.184 16.5955 30.6566 13.4595C30.4424 13.0213 29.9216 11.9615 28.8044 11.1467C27.3148 10.0603 25.6208 10.0239 24.68 10.0169C21.5047 9.99314 17.0905 9.97214 11.7159 10.0841Z" fill="#000FFF"/>
</svg>
